HIERARCHY
ROOT Hips
{
	OFFSET 0.000000 0.000000 0.000000 
	CHANNELS 6 Xposition Yposition Zposition Zrotation Yrotation Xrotation
	JOINT LeftUpLeg
	{
		OFFSET 1.363060 -1.794630 0.839290 
		CHANNELS 3 Zrotation Yrotation Xrotation
		JOINT LeftLeg
		{
			OFFSET 2.448110 -6.726130 0.000000 
			CHANNELS 3 Zrotation Yrotation Xrotation
			JOINT LeftFoot
			{
				OFFSET 2.562200 -7.039590 0.000000 
				CHANNELS 3 Zrotation Yrotation Xrotation
				JOINT LeftToeBase
				{
					OFFSET 0.157640 -0.433110 2.322550 
					CHANNELS 3 Zrotation Yrotation Xrotation
					End Site
					{
						OFFSET 0.000000 0.000000 0.000000 
					}
				}
			}
		}
	}
	JOINT RightUpLeg
	{
		OFFSET -1.305520 -1.794630 0.839290 
		CHANNELS 3 Zrotation Yrotation Xrotation
		JOINT RightLeg
		{
			OFFSET -2.542530 -6.985550 0.000000 
			CHANNELS 3 Zrotation Yrotation Xrotation
			JOINT RightFoot
			{
				OFFSET -2.568260 -7.056230 0.000000 
				CHANNELS 3 Zrotation Yrotation Xrotation
				JOINT RightToeBase
				{
					OFFSET -0.164730 -0.452590 2.363150 
					CHANNELS 3 Zrotation Yrotation Xrotation
					End Site
					{
						OFFSET 0.000000 0.000000 0.000000 
					}
				}
			}
		}
	}
	JOINT Spine
	{
		OFFSET 0.028270 2.035590 -0.193380 
		CHANNELS 3 Zrotation Yrotation Xrotation
		JOINT Spine1
		{
			OFFSET 0.056720 2.048850 -0.042750 
			CHANNELS 3 Zrotation Yrotation Xrotation
			JOINT Neck1
			{
				OFFSET -0.054170 1.746240 0.172020 
				CHANNELS 3 Zrotation Yrotation Xrotation
				JOINT Head
				{
					OFFSET 0.104070 1.761360 -0.123970 
					CHANNELS 3 Zrotation Yrotation Xrotation
					End Site
					{
						OFFSET 0.000000 0.000000 0.000000 
					}
				}
			}
			JOINT LeftArm
			{
				OFFSET 3.362410 1.200890 -0.311210 
				CHANNELS 3 Zrotation Yrotation Xrotation
				JOINT LeftForeArm
				{
					OFFSET 4.983000 -0.000000 -0.000000 
					CHANNELS 3 Zrotation Yrotation Xrotation
					JOINT LeftHand
					{
						OFFSET 3.483560 -0.000000 -0.000000 
						CHANNELS 3 Zrotation Yrotation Xrotation
						JOINT LeftHandIndex1
						{
							OFFSET 0.715260 -0.000000 -0.000000 
							CHANNELS 3 Zrotation Yrotation Xrotation
							End Site
							{
								OFFSET 0.000000 0.000000 0.000000 
							}
						}
					}
				}
			}
			JOINT RightArm
			{
				OFFSET -3.136600 1.374050 -0.404650 
				CHANNELS 3 Zrotation Yrotation Xrotation
				JOINT RightForeArm
				{
					OFFSET -5.241900 -0.000000 -0.000000 
					CHANNELS 3 Zrotation Yrotation Xrotation
					JOINT RightHand
					{
						OFFSET -3.444170 -0.000000 -0.000000 
						CHANNELS 3 Zrotation Yrotation Xrotation
						JOINT RightHandIndex1
						{
							OFFSET -0.622530 -0.000000 -0.000000 
							CHANNELS 3 Zrotation Yrotation Xrotation
							End Site
							{
								OFFSET 0.000000 0.000000 0.000000 
							}
						}
					}
				}
			}
		}
	}
}
MOTION
Frames: 9
Frame Time: 0.041667
1.104659 17.278160 37.655677 -174.483315 -2.650477 -176.542929 -18.275902 -11.485099 -30.128534 0.398345 11.225262 26.734992 1.577809 12.468032 23.303197 0.371500 -3.915200 -10.838100 38.371582 -6.119499 6.598775 -4.772021 -13.362932 45.824868 -0.022404 -24.129854 12.700850 -0.825700 5.797400 -16.197600 -0.543466 8.113597 -3.529262 -3.535902 4.397410 10.364144 5.968131 -10.158917 14.048678 -1.635500 -3.704500 26.701500 -69.997918 34.722627 53.746613 96.058268 -62.493903 -61.038940 1.252603 -0.342320 18.208880 -7.125000 0.000000 0.000000 91.518792 -11.476419 43.704151 -90.274834 62.316547 -47.355172 0.377393 -1.787693 10.284688 7.125000 0.000000 0.000000 
1.095366 17.164365 37.373622 -174.466096 -2.752179 -177.163758 -18.911264 -10.649384 -29.522611 0.803559 11.854204 28.760340 0.919076 12.586491 19.417069 0.396300 -4.042000 -11.194900 37.967832 -6.424065 5.627749 -5.722875 -14.233740 49.528868 0.240944 -24.941927 11.059715 -0.864300 5.928000 -16.575600 -0.548582 7.919152 -3.499084 -3.680665 4.315656 10.324735 6.092524 -10.304112 14.049353 -1.440400 -3.804100 26.682100 -70.144458 34.387052 53.814465 95.987625 -62.465121 -60.994263 1.254749 -0.296517 17.871623 -7.125000 0.000000 0.000000 91.984501 -12.052731 42.924540 -89.283150 62.562168 -46.561890 0.445800 -1.852386 10.488934 7.125000 0.000000 0.000000 
1.085207 17.046897 37.098484 -174.601308 -3.013167 -177.735869 -19.689538 -10.025509 -28.671327 1.226849 12.460071 30.772497 0.224612 13.323649 14.845280 0.331500 -3.700400 -10.235100 37.431723 -6.716186 4.574984 -6.705536 -15.025093 53.157001 0.503639 -25.640826 9.371216 -0.740500 5.497400 -15.332800 -0.492155 7.550871 -3.453858 -3.525999 4.104185 10.349372 6.184926 -10.145715 14.186897 -1.342900 -3.773000 26.796500 -70.819751 34.152349 53.442843 95.792762 -62.491491 -60.787559 1.277026 -0.296427 18.139620 -7.125000 0.000000 0.000000 92.109117 -12.429994 42.041843 -87.487778 62.879330 -45.254276 0.442066 -1.878576 11.164178 7.125000 0.000000 0.000000 
1.072455 16.978166 36.830911 -175.046186 -3.241840 -178.309916 -20.433278 -10.873772 -27.773141 1.603514 13.043594 32.572906 -0.147715 15.203015 13.069959 0.208100 -2.937100 -8.103600 36.539724 -6.723638 3.396608 -7.700880 -15.712334 56.608647 0.631676 -25.404479 7.934935 -0.826600 5.800700 -16.207400 -0.482071 7.181624 -3.390186 -3.578395 3.914578 10.403343 6.316530 -9.975873 14.125127 -1.247300 -3.677200 26.575500 -71.776030 33.329391 52.885910 94.733517 -62.540710 -59.870220 1.307532 -0.268354 18.865972 -7.125000 0.000000 0.000000 92.648892 -12.686241 40.868936 -85.313141 63.244694 -43.664093 0.429486 -1.939118 11.666321 7.125000 0.000000 0.000000 
1.060136 16.880042 36.567336 -175.460628 -3.439236 -178.854284 -21.286765 -11.161121 -26.849490 1.984411 13.558931 34.288831 -0.607619 16.856500 10.392169 0.136400 -2.380800 -6.559300 35.663177 -6.735532 2.236505 -8.742234 -16.348835 60.110986 0.756865 -25.330745 6.643434 -0.833600 5.824400 -16.275800 -0.477525 6.845427 -3.336611 -3.605721 3.735573 10.418761 6.453673 -9.855212 14.130785 -1.110700 -3.633100 26.481200 -72.552498 32.578369 52.501315 93.947984 -62.564411 -59.194647 1.318601 -0.240039 19.152803 -7.125000 0.000000 0.000000 93.106332 -12.968398 39.779549 -83.169196 63.531714 -42.167171 0.433869 -2.001838 12.187277 7.125000 0.000000 0.000000 
1.047384 16.786023 36.312622 -176.061743 -3.600195 -179.355311 -22.326891 -11.517533 -25.851319 2.324356 13.995561 35.783552 -1.024993 18.544794 8.035528 0.078600 -1.808400 -4.976500 34.575604 -6.574177 0.945512 -9.822009 -16.923966 63.610626 0.824488 -24.969788 5.540980 -0.844100 5.860100 -16.379000 -0.489595 6.524154 -3.280111 -3.621711 3.556630 10.426940 6.597416 -9.729621 14.121762 -0.965600 -3.587600 26.371900 -73.387477 31.631492 52.128665 92.959205 -62.585053 -58.352918 1.321362 -0.205963 19.428391 -7.125000 0.000000 0.000000 93.595070 -13.168128 38.640858 -80.711379 63.767615 -40.507430 0.448635 -2.064646 12.595310 7.125000 0.000000 0.000000 
1.035280 16.696544 36.067635 -176.842981 -3.693702 -179.799060 -23.536888 -11.810983 -24.840703 2.627939 14.365708 37.092564 -1.397761 20.107788 5.948201 0.041900 -1.320700 -3.631600 33.292523 -6.206652 -0.505773 -10.942344 -17.446252 67.130103 0.850705 -24.378324 4.542486 -0.868600 5.942300 -16.617100 -0.515895 6.242481 -3.214515 -3.574827 3.382183 10.470959 6.743138 -9.612194 14.101550 -0.799100 -3.557600 26.270800 -74.264582 30.469492 51.812794 91.804704 -62.599985 -57.374868 1.313569 -0.162165 19.667717 -7.125000 0.000000 0.000000 94.063617 -13.275955 37.484005 -77.961433 63.909191 -38.718306 0.467867 -2.131787 12.902214 7.125000 0.000000 0.000000 
1.025122 16.611279 35.833346 -177.744144 -3.668144 179.811335 -24.840991 -11.878785 -23.847140 2.893418 14.665799 38.213325 -1.725064 21.426372 4.013393 0.022500 -0.968600 -2.662300 31.895254 -5.598531 -2.103206 -12.072860 -17.913849 70.593178 0.849172 -23.647713 3.642948 -0.902300 6.053600 -16.940100 -0.553002 6.032881 -3.143851 -3.469103 3.228846 10.532338 6.875074 -9.494392 14.072918 -0.638900 -3.533000 26.179100 -75.145129 29.148293 51.575030 90.548678 -62.604760 -56.313392 1.297254 -0.113961 19.878714 -7.125000 0.000000 0.000000 94.497047 -13.322795 36.314640 -74.952221 63.914021 -36.813881 0.486551 -2.193029 13.186039 7.125000 0.000000 0.000000 
1.017341 16.531418 35.609323 -178.650850 -3.544452 179.483719 -26.092834 -11.701938 -22.939178 3.133822 14.915963 39.204315 -1.992997 22.432550 2.261571 0.014700 -0.783600 -2.153600 30.530099 -4.772657 -3.839346 -13.177905 -18.333544 73.912648 0.844994 -22.897364 2.701832 -0.952300 6.214500 -17.408000 -0.592007 5.879457 -3.072111 -3.321284 3.093253 10.610486 6.985228 -9.372652 14.039642 -0.488400 -3.515000 26.104000 -76.018320 27.746225 51.389381 89.253143 -62.600189 -55.220743 1.278117 -0.066866 20.160476 -7.125000 0.000000 0.000000 94.878124 -13.356822 35.158150 -71.841724 63.758831 -34.883394 0.501917 -2.246746 13.462877 7.125000 0.000000 0.000000 
